<svg xmlns="http://www.w3.org/2000/svg" width="245.14" height="178.272" viewBox="0 0 245.14 178.272">
  <g id="logo" transform="translate(-735.287 -401.203)">
    <path id="Path_62" data-name="Path 62" d="M-98.855.425a22.4,22.4,0,0,1-11.73-3.1,22.606,22.606,0,0,1-8.2-8.458,24.155,24.155,0,0,1-3.018-12.07,23.8,23.8,0,0,1,3.1-12.155,22.853,22.853,0,0,1,8.458-8.458,23.634,23.634,0,0,1,12.07-3.1,23.4,23.4,0,0,1,12.028,3.1,22.95,22.95,0,0,1,8.415,8.458A24.427,24.427,0,0,1-74.545-23.2l-2.635,2.04a21.46,21.46,0,0,1-2.848,11.007,21.1,21.1,0,0,1-7.735,7.735A21.625,21.625,0,0,1-98.855.425Zm.68-5.95a16.908,16.908,0,0,0,8.8-2.3,16.642,16.642,0,0,0,6.12-6.332A18.26,18.26,0,0,0-81-23.2,18.194,18.194,0,0,0-83.257-32.3a17.053,17.053,0,0,0-6.12-6.333,16.671,16.671,0,0,0-8.8-2.338,16.734,16.734,0,0,0-8.755,2.338,17.276,17.276,0,0,0-6.2,6.333,17.928,17.928,0,0,0-2.3,9.095,17.993,17.993,0,0,0,2.3,9.052,16.857,16.857,0,0,0,6.2,6.332A16.972,16.972,0,0,0-98.175-5.525ZM-77.86,0a3.307,3.307,0,0,1-2.38-.892,3.084,3.084,0,0,1-.935-2.337V-17.765l1.615-6.715,5.015,1.275V-3.23A3.084,3.084,0,0,1-75.48-.892,3.307,3.307,0,0,1-77.86,0Zm18.785-28.645a19.847,19.847,0,0,1,2.763-9.435,18.566,18.566,0,0,1,6.545-6.545A17.33,17.33,0,0,1-40.8-47a13.33,13.33,0,0,1,6.035,1.1,2.667,2.667,0,0,1,1.615,3.23,2.519,2.519,0,0,1-1.147,1.7,3.568,3.568,0,0,1-1.955.34q-1.147-.085-2.593-.17a18.9,18.9,0,0,0-8.457.978,12.809,12.809,0,0,0-5.865,4.292,11.15,11.15,0,0,0-2.167,6.885ZM-58.565,0a3.217,3.217,0,0,1-2.38-.85,3.217,3.217,0,0,1-.85-2.38V-43.265a3.217,3.217,0,0,1,.85-2.38,3.217,3.217,0,0,1,2.38-.85,3.217,3.217,0,0,1,2.38.85,3.217,3.217,0,0,1,.85,2.38V-3.23a3.217,3.217,0,0,1-.85,2.38A3.217,3.217,0,0,1-58.565,0ZM-5.78.425a23.221,23.221,0,0,1-11.9-3.017A21.364,21.364,0,0,1-25.8-10.965,25.065,25.065,0,0,1-28.73-23.2,24.4,24.4,0,0,1-25.67-35.53,21.918,21.918,0,0,1-17.255-43.9,24.326,24.326,0,0,1-5.1-46.92,24.262,24.262,0,0,1,7.1-43.9a21.7,21.7,0,0,1,8.33,8.372A25.321,25.321,0,0,1,18.53-23.2l-3.825,2.04A23.181,23.181,0,0,1,12.07-9.988,19.482,19.482,0,0,1,4.8-2.338,20.261,20.261,0,0,1-5.78.425Zm.85,17.935a26.461,26.461,0,0,1-11.815-2.508A23.435,23.435,0,0,1-25.16,9.01a2.748,2.748,0,0,1-.808-2.21,2.664,2.664,0,0,1,1.233-1.955,3.147,3.147,0,0,1,2.465-.51A3.31,3.31,0,0,1-20.145,5.61a18.1,18.1,0,0,0,6.332,4.93,20.37,20.37,0,0,0,8.968,1.87,16.362,16.362,0,0,0,8.585-2.3,16.508,16.508,0,0,0,6.078-6.46A20.245,20.245,0,0,0,12.07-6.12V-19.04l2.465-4.93,3.995.765v17.34A24.939,24.939,0,0,1,15.47,6.5a23.1,23.1,0,0,1-8.33,8.67A22.859,22.859,0,0,1-4.93,18.36ZM-5.1-5.525A17.323,17.323,0,0,0,3.783-7.778,16.106,16.106,0,0,0,9.86-14.025a18.65,18.65,0,0,0,2.21-9.18,18.893,18.893,0,0,0-2.21-9.223,16.029,16.029,0,0,0-6.077-6.29A17.323,17.323,0,0,0-5.1-40.97a17.554,17.554,0,0,0-8.925,2.253,15.941,15.941,0,0,0-6.12,6.29,18.893,18.893,0,0,0-2.21,9.223,18.65,18.65,0,0,0,2.21,9.18,16.017,16.017,0,0,0,6.12,6.248A17.554,17.554,0,0,0-5.1-5.525ZM51.51.51A22.808,22.808,0,0,1,40.715-2,18.415,18.415,0,0,1,33.192-9.35,23.512,23.512,0,0,1,30.43-21.165v-22.1a3.12,3.12,0,0,1,.935-2.3,3.12,3.12,0,0,1,2.295-.935,3.224,3.224,0,0,1,2.38.935,3.12,3.12,0,0,1,.935,2.3v22.1a16.926,16.926,0,0,0,2,8.67,12.753,12.753,0,0,0,5.44,5.1A17.331,17.331,0,0,0,52.19-5.7,17.132,17.132,0,0,0,59.712-7.31a13.4,13.4,0,0,0,5.312-4.42A10.88,10.88,0,0,0,66.98-18.1h4.675a19.183,19.183,0,0,1-2.933,9.562,19.044,19.044,0,0,1-7.182,6.63A20.836,20.836,0,0,1,51.51.51ZM70.21,0a3.161,3.161,0,0,1-2.337-.892,3.273,3.273,0,0,1-.893-2.423v-39.95a3.161,3.161,0,0,1,.893-2.337,3.161,3.161,0,0,1,2.337-.893,3.307,3.307,0,0,1,2.38.893,3.084,3.084,0,0,1,.935,2.337v39.95A3.191,3.191,0,0,1,72.59-.892,3.307,3.307,0,0,1,70.21,0Zm34.85.425a30.324,30.324,0,0,1-9.945-1.7,18.7,18.7,0,0,1-7.99-5.1A2.732,2.732,0,0,1,86.36-8.67a3.441,3.441,0,0,1,1.275-2.21,3.372,3.372,0,0,1,2.465-.68,3.388,3.388,0,0,1,2.125,1.105,13.038,13.038,0,0,0,5.4,3.655,20.8,20.8,0,0,0,7.438,1.275q6.29,0,9.1-2.168a6.684,6.684,0,0,0,2.89-5.227,5.957,5.957,0,0,0-2.89-5.058q-2.89-2-9.52-3.1-8.585-1.36-12.58-4.76a10.3,10.3,0,0,1-3.995-8.075,11.254,11.254,0,0,1,2.295-7.225,13.877,13.877,0,0,1,6.12-4.335,23.635,23.635,0,0,1,8.415-1.445,22.728,22.728,0,0,1,9.817,1.955,17.949,17.949,0,0,1,6.673,5.27,2.979,2.979,0,0,1,.68,2.295,2.755,2.755,0,0,1-1.36,1.955,3.422,3.422,0,0,1-2.338.382,3.807,3.807,0,0,1-2.252-1.232,12.931,12.931,0,0,0-4.93-3.613,16.957,16.957,0,0,0-6.46-1.147,13.065,13.065,0,0,0-7.48,1.912,5.658,5.658,0,0,0-2.805,4.8,5.583,5.583,0,0,0,1.063,3.4,8.63,8.63,0,0,0,3.655,2.55,32.755,32.755,0,0,0,7.268,1.87A32.262,32.262,0,0,1,116.492-23.5a13.09,13.09,0,0,1,5.27,4.675,11.3,11.3,0,0,1,1.572,5.822A11.127,11.127,0,0,1,121-5.993a15.354,15.354,0,0,1-6.46,4.718A24.7,24.7,0,0,1,105.06.425Z" transform="translate(857.092 561.115)" fill="#fff"/>
    <g id="logo-icon" transform="translate(759.839 401.203)">
      <g id="Layer_1" data-name="Layer 1" transform="translate(0 0)">
        <path id="Path_46" data-name="Path 46" d="M387.082,39.246c-12.218-3.7-19.561-8.83-28.063-14.775C349.274,17.666,338.228,9.934,317.468,3.1A60.963,60.963,0,0,0,289.381.647a71.809,71.809,0,0,0-22.557,7.417,82.811,82.811,0,0,0-20.536,14.811,2.437,2.437,0,0,0,3.538,3.353A79.453,79.453,0,0,1,269.2,12.323a66.9,66.9,0,0,1,20.979-6.866,56.135,56.135,0,0,1,25.766,2.275c20.079,6.61,30.812,14.115,40.284,20.735,7.041,4.923,13.757,9.618,23.26,13.316-9.6,3.779-16.566,8.733-23.871,13.909-9.815,6.966-20.94,14.862-41.024,21.472a56.135,56.135,0,0,1-25.766,2.275,67.114,67.114,0,0,1-20.979-6.866,79.582,79.582,0,0,1-19.372-13.905,2.437,2.437,0,0,0-3.538,3.353,82.752,82.752,0,0,0,20.536,14.811,71.866,71.866,0,0,0,22.557,7.419,61.838,61.838,0,0,0,8.9.648,61.111,61.111,0,0,0,19.184-3.1c20.778-6.84,32.222-14.963,42.319-22.136,8.818-6.259,16.432-11.665,28.635-15.368a2.64,2.64,0,0,0,0-5.053Z" transform="translate(-194.66 0.004)" fill="#fff"/>
        <path id="Path_47" data-name="Path 47" d="M110.855,143.829h.593a22.242,22.242,0,1,0-17.4-8.406c-4.754-1.647-9.669-3.706-14.706-5.818-10.435-4.374-21.225-8.9-33.331-11.267a47.047,47.047,0,0,0-32.918,5.816A52.324,52.324,0,0,0,.593,134a2.437,2.437,0,1,0,3.678,3.2,48.412,48.412,0,0,1,11.4-8.905c9.456-5.406,19.348-7.147,29.4-5.177,11.619,2.277,22.173,6.7,32.382,10.979C89.189,139.013,100.28,143.66,110.855,143.829Zm.593-39.555A17.346,17.346,0,1,1,94.1,121.616,17.346,17.346,0,0,1,111.448,104.273Z" transform="translate(0.006 -79.167)" fill="#fff"/>
      </g>
    </g>
  </g>
</svg>
