<svg xmlns="http://www.w3.org/2000/svg" width="153.321" height="67" viewBox="0 0 153.321 67">
  <g id="logo" transform="translate(-759.839 -401.203)">
    <g id="logo-icon" transform="translate(759.839 401.203)">
      <g id="Layer_1" data-name="Layer 1" transform="translate(0 0)">
        <path id="Path_46" data-name="Path 46" d="M356.971,30.97c-9.642-2.917-15.437-6.968-22.146-11.659-7.691-5.371-16.408-11.472-32.791-16.865A48.109,48.109,0,0,0,279.87.51a56.668,56.668,0,0,0-17.8,5.853,65.35,65.35,0,0,0-16.206,11.688,1.923,1.923,0,0,0,2.792,2.646A62.7,62.7,0,0,1,263.942,9.724,52.8,52.8,0,0,1,280.5,4.3,44.3,44.3,0,0,1,300.831,6.1c15.846,5.217,24.316,11.139,31.79,16.363,5.556,3.885,10.856,7.59,18.355,10.509-7.574,2.983-13.073,6.891-18.838,10.977-7.746,5.5-16.525,11.728-32.374,16.945a44.3,44.3,0,0,1-20.333,1.795,52.963,52.963,0,0,1-16.556-5.419A62.8,62.8,0,0,1,247.589,46.3a1.923,1.923,0,0,0-2.792,2.646A65.3,65.3,0,0,0,261,60.631a56.713,56.713,0,0,0,17.8,5.855A48.8,48.8,0,0,0,285.83,67a48.226,48.226,0,0,0,15.139-2.449c16.4-5.4,25.428-11.808,33.4-17.469,6.959-4.939,12.967-9.206,22.6-12.127a2.083,2.083,0,0,0,0-3.987Z" transform="translate(-205.12 0.004)" fill="#624972"/>
        <path id="Path_47" data-name="Path 47" d="M87.48,134.449h.468a17.552,17.552,0,1,0-13.73-6.633c-3.752-1.3-7.63-2.925-11.6-4.592-8.234-3.452-16.749-7.021-26.3-8.892a37.128,37.128,0,0,0-25.978,4.59,41.292,41.292,0,0,0-9.866,7.771,1.923,1.923,0,1,0,2.9,2.524,38.2,38.2,0,0,1,9-7.028,32.9,32.9,0,0,1,23.2-4.085c9.169,1.8,17.5,5.289,25.554,8.664C70.383,130.649,79.135,134.316,87.48,134.449Zm.468-31.215A13.688,13.688,0,1,1,74.261,116.92,13.689,13.689,0,0,1,87.948,103.234Z" transform="translate(0.006 -83.421)" fill="#624972"/>
      </g>
    </g>
  </g>
</svg>
